<svg width="26" height="26" viewBox="0 0 26 26" fill="none" xmlns="http://www.w3.org/2000/svg">
<path fill-rule="evenodd" clip-rule="evenodd" d="M6.3205 19.6796C5.98203 19.3411 5.98203 18.7923 6.3205 18.454L17.841 6.93338H10.4C9.92135 6.93338 9.53332 6.54535 9.53332 6.06671C9.53332 5.58807 9.92135 5.20004 10.4 5.20004H19.9333C20.1632 5.20004 20.3836 5.29135 20.5462 5.45389C20.7086 5.61642 20.8 5.83685 20.8 6.06671V15.6001C20.8 16.0787 20.4119 16.4667 19.9333 16.4667C19.4547 16.4667 19.0667 16.0787 19.0667 15.6001V8.15903L7.54614 19.6796C7.20769 20.018 6.65895 20.018 6.3205 19.6796Z" fill="#1A1A1A"/>
</svg>
