<svg width="38" height="39" viewBox="0 0 38 39" fill="none" xmlns="http://www.w3.org/2000/svg">
<path fill-rule="evenodd" clip-rule="evenodd" d="M10.2377 29.5402C9.74303 29.0455 9.74303 28.2434 10.2377 27.7489L27.0754 10.9111H16.2C15.5005 10.9111 14.9334 10.344 14.9334 9.64444C14.9334 8.94489 15.5005 8.37778 16.2 8.37778H30.1334C30.4693 8.37778 30.7915 8.51123 31.0292 8.74878C31.2665 8.98633 31.4 9.3085 31.4 9.64444V23.5778C31.4 24.2774 30.8328 24.8445 30.1334 24.8445C29.4339 24.8445 28.8667 24.2774 28.8667 23.5778V12.7025L12.029 29.5402C11.5344 30.0347 10.7324 30.0347 10.2377 29.5402Z" fill="#F1F7F4"/>
</svg>
