<svg width="242" height="19" viewBox="0 0 242 19" fill="none" xmlns="http://www.w3.org/2000/svg">
<path d="M12.6252 14.3497H4.65024L2.40024 18.4997H0.550244L9.97524 1.24969H11.9502L15.2502 18.4997H13.4002L12.6252 14.3497ZM12.3502 12.9497L10.5752 3.42469L5.40024 12.9497H12.3502ZM26.4088 1.02469C28.1255 1.02469 29.4088 1.39136 30.2588 2.12469C31.1255 2.85803 31.5588 3.84136 31.5588 5.07469C31.5588 5.29136 31.5255 5.63303 31.4588 6.09969C31.2422 7.36636 30.6922 8.44969 29.8088 9.34969C28.9255 10.233 27.7505 10.808 26.2838 11.0747L29.4588 18.4997H27.3588L24.3338 11.1997H21.0838L19.8088 18.4997H18.0588L21.1338 1.02469H26.4088ZM29.6338 6.09969C29.6838 5.76636 29.7088 5.46636 29.7088 5.19969C29.7088 4.31636 29.4172 3.63303 28.8338 3.14969C28.2505 2.66636 27.3505 2.42469 26.1338 2.42469H22.6338L21.3338 9.79969H24.8588C26.2422 9.79969 27.3338 9.46636 28.1338 8.79969C28.9338 8.13303 29.4338 7.23303 29.6338 6.09969ZM46.0567 1.02469L45.8067 2.42469H40.9317L38.1067 18.4997H36.3567L39.1817 2.42469H34.3317L34.5817 1.02469H46.0567ZM50.295 2.39969L49.145 8.99969H55.77L55.545 10.3997H48.895L47.72 17.0997H55.095L54.845 18.4997H45.72L48.795 0.999694H57.945L57.67 2.39969H50.295ZM78.3932 1.24969L75.3432 18.4997H73.5932L76.0182 4.74969L67.4682 18.4997H66.1932L62.4432 4.77469L60.0432 18.4997H58.2932L61.3432 1.24969H63.1932L67.2682 16.1997L76.5432 1.24969H78.3932ZM91.7305 18.8747C90.4555 18.8747 89.3055 18.658 88.2805 18.2247C87.2639 17.7914 86.4222 17.1747 85.7555 16.3747C85.0972 15.5664 84.668 14.6122 84.468 13.5122L86.768 13.1497C87.0597 14.283 87.6639 15.1705 88.5805 15.8122C89.5055 16.4455 90.593 16.7622 91.843 16.7622C92.6514 16.7622 93.3805 16.6372 94.0305 16.3872C94.6889 16.1289 95.2097 15.7622 95.593 15.2872C95.9764 14.8122 96.168 14.2497 96.168 13.5997C96.168 13.1997 96.0972 12.858 95.9555 12.5747C95.8222 12.283 95.6347 12.0372 95.393 11.8372C95.1597 11.6289 94.893 11.4539 94.593 11.3122C94.293 11.1705 93.9805 11.0539 93.6555 10.9622L89.068 9.59969C88.568 9.44969 88.0847 9.26219 87.618 9.03719C87.1514 8.80386 86.7347 8.51636 86.368 8.17469C86.0014 7.82469 85.7097 7.40803 85.493 6.92469C85.2764 6.43303 85.168 5.85386 85.168 5.18719C85.168 4.12053 85.443 3.21219 85.993 2.46219C86.5514 1.70386 87.3055 1.12469 88.2555 0.724694C89.2055 0.324694 90.2764 0.128861 91.468 0.137194C92.6764 0.145527 93.7555 0.362194 94.7055 0.787194C95.6639 1.20386 96.4555 1.80386 97.0805 2.58719C97.7139 3.37053 98.1389 4.30803 98.3555 5.39969L95.993 5.81219C95.868 5.07886 95.5889 4.44969 95.1555 3.92469C94.7305 3.39136 94.1972 2.98303 93.5555 2.69969C92.9139 2.40803 92.2097 2.25803 91.443 2.24969C90.7097 2.24136 90.0472 2.35803 89.4555 2.59969C88.8639 2.84136 88.393 3.17886 88.043 3.61219C87.693 4.03719 87.518 4.52886 87.518 5.08719C87.518 5.63719 87.6764 6.08303 87.993 6.42469C88.3097 6.75803 88.6972 7.02469 89.1555 7.22469C89.6222 7.41636 90.0764 7.57469 90.518 7.69969L93.943 8.68719C94.3347 8.79553 94.7847 8.94553 95.293 9.13719C95.8097 9.32886 96.3097 9.59969 96.793 9.94969C97.2764 10.2914 97.6764 10.7497 97.993 11.3247C98.3097 11.8914 98.468 12.608 98.468 13.4747C98.468 14.3414 98.293 15.1122 97.943 15.7872C97.6014 16.4622 97.1222 17.0289 96.5055 17.4872C95.8889 17.9372 95.1722 18.2789 94.3555 18.5122C93.5389 18.7539 92.6639 18.8747 91.7305 18.8747ZM101.34 18.4997V0.499694H103.565V16.3872H111.915V18.4997H101.34ZM114.03 18.4997V0.499694H125.405V2.61219H116.255V8.24969H123.905V10.3622H116.255V16.3872H125.405V18.4997H114.03ZM128.409 18.4997V0.499694H135.522C135.697 0.499694 135.905 0.508027 136.147 0.524694C136.389 0.533028 136.622 0.558028 136.847 0.599694C137.822 0.749694 138.639 1.08303 139.297 1.59969C139.964 2.11636 140.464 2.77053 140.797 3.56219C141.13 4.34553 141.297 5.21636 141.297 6.17469C141.297 7.12469 141.126 7.99553 140.784 8.78719C140.451 9.57053 139.951 10.2247 139.284 10.7497C138.626 11.2664 137.814 11.5997 136.847 11.7497C136.622 11.783 136.389 11.808 136.147 11.8247C135.905 11.8414 135.697 11.8497 135.522 11.8497H130.634V18.4997H128.409ZM130.634 9.73719H135.447C135.605 9.73719 135.784 9.72886 135.984 9.71219C136.193 9.69553 136.389 9.66636 136.572 9.62469C137.147 9.49136 137.614 9.24969 137.972 8.89969C138.339 8.54136 138.605 8.12469 138.772 7.64969C138.939 7.16636 139.022 6.67469 139.022 6.17469C139.022 5.67469 138.939 5.18719 138.772 4.71219C138.605 4.22886 138.339 3.80803 137.972 3.44969C137.614 3.09136 137.147 2.84969 136.572 2.72469C136.389 2.67469 136.193 2.64553 135.984 2.63719C135.784 2.62053 135.605 2.61219 135.447 2.61219H130.634V9.73719ZM151.19 18.8747C149.399 18.8747 147.878 18.4789 146.628 17.6872C145.378 16.8955 144.424 15.7955 143.765 14.3872C143.115 12.9789 142.79 11.3497 142.79 9.49969C142.79 7.64969 143.115 6.02053 143.765 4.61219C144.424 3.20386 145.378 2.10386 146.628 1.31219C147.878 0.520527 149.399 0.124694 151.19 0.124694C153.274 0.124694 154.986 0.653861 156.328 1.71219C157.678 2.77053 158.607 4.19553 159.115 5.98719L156.853 6.58719C156.486 5.24553 155.832 4.18719 154.89 3.41219C153.949 2.63719 152.715 2.24969 151.19 2.24969C149.849 2.24969 148.732 2.55386 147.84 3.16219C146.949 3.77053 146.278 4.62053 145.828 5.71219C145.378 6.79553 145.149 8.05803 145.14 9.49969C145.132 10.933 145.353 12.1955 145.803 13.2872C146.253 14.3705 146.928 15.2205 147.828 15.8372C148.728 16.4455 149.849 16.7497 151.19 16.7497C152.715 16.7497 153.949 16.3622 154.89 15.5872C155.832 14.8039 156.486 13.7455 156.853 12.4122L159.115 13.0122C158.607 14.7955 157.678 16.2205 156.328 17.2872C154.986 18.3455 153.274 18.8747 151.19 18.8747ZM161.857 18.4997V0.499694H164.082V8.43719H173.557V0.499694H175.782V18.4997H173.557V10.5497H164.082V18.4997H161.857ZM179.288 18.4997V0.499694H190.663V2.61219H181.513V8.24969H189.163V10.3622H181.513V16.3872H190.663V18.4997H179.288ZM193.668 18.4997V0.499694H195.918L205.306 14.5622V0.499694H207.556V18.4997H205.306L195.918 4.42469V18.4997H193.668ZM211.051 18.4997V0.499694H213.276V8.94969L221.151 0.499694H223.951L215.776 9.23719L224.589 18.4997H221.714L213.276 9.69969V18.4997H211.051ZM232.855 18.8747C231.064 18.8747 229.543 18.4789 228.293 17.6872C227.043 16.8955 226.089 15.7955 225.43 14.3872C224.78 12.9789 224.455 11.3497 224.455 9.49969C224.455 7.64969 224.78 6.02053 225.43 4.61219C226.089 3.20386 227.043 2.10386 228.293 1.31219C229.543 0.520527 231.064 0.124694 232.855 0.124694C234.655 0.124694 236.18 0.520527 237.43 1.31219C238.68 2.10386 239.63 3.20386 240.28 4.61219C240.93 6.02053 241.255 7.64969 241.255 9.49969C241.255 11.3497 240.93 12.9789 240.28 14.3872C239.63 15.7955 238.68 16.8955 237.43 17.6872C236.18 18.4789 234.655 18.8747 232.855 18.8747ZM232.855 16.7497C234.197 16.758 235.314 16.458 236.205 15.8497C237.105 15.233 237.776 14.3789 238.218 13.2872C238.668 12.1955 238.893 10.933 238.893 9.49969C238.893 8.05803 238.668 6.79553 238.218 5.71219C237.776 4.62886 237.105 3.78303 236.205 3.17469C235.314 2.56636 234.197 2.25803 232.855 2.24969C231.514 2.24136 230.397 2.54136 229.505 3.14969C228.622 3.75803 227.955 4.60803 227.505 5.69969C227.055 6.79136 226.826 8.05803 226.818 9.49969C226.809 10.933 227.03 12.1914 227.48 13.2747C227.93 14.358 228.601 15.208 229.493 15.8247C230.393 16.433 231.514 16.7414 232.855 16.7497Z" fill="#1A1A1A"/>
</svg>
